<svg id="svg2" xmlns="http://www.w3.org/2000/svg" viewBox="0 0 240.5 360.5"><defs><style>.cls-1,.cls-3,.cls-4,.cls-5{fill:#fff;}.cls-1{stroke:#000;stroke-width:0.5px;}.cls-2{fill:#70348b;}.cls-4{font-size:50.26px;}.cls-4,.cls-5{font-family:SegoeUI-Bold, Segoe UI;font-weight:700;}.cls-5{font-size:49.19px;}.cls-6{fill:#9545ba;}</style></defs><title>LG</title><path id="rect2987-1" class="cls-1" d="M41.2.91h160a40.12,40.12,0,0,1,40,40v280a40.12,40.12,0,0,1-40,40H41.2a40.12,40.12,0,0,1-40-40v-280A39.86,39.86,0,0,1,41.2.91Z" transform="translate(-0.95 -0.66)"/><path id="rect3757-5" class="cls-2" d="M41.2,20.91h160a19.81,19.81,0,0,1,20,20v280a19.81,19.81,0,0,1-20,20H41.2a19.81,19.81,0,0,1-20-20v-280A20.06,20.06,0,0,1,41.2,20.91Z" transform="translate(-0.95 -0.66)"/><path id="path3773-0-4-8-4-2" class="cls-3" d="M181.2,80.91a160,160,0,0,0-160,160,40.12,40.12,0,0,0,40,40,160,160,0,0,0,160-160A40.12,40.12,0,0,0,181.2,80.91Z" transform="translate(-0.95 -0.66)"/><text class="cls-4" transform="translate(27.3 67.36) scale(1.16 1)">L</text><text class="cls-5" transform="translate(176.59 322.07)">G</text><path class="cls-6" d="M121.75,120l52.61,33.83v52.61l-52.61,33.83L69.14,206.44V153.83ZM76.67,159.85v42.82l43.2,28.82V188.66Zm88.48-3.4-43.4-28.92L78.34,156.45l43.41,29ZM87.91,176.37a7.14,7.14,0,0,1,2.93.6,7.72,7.72,0,0,1,2.38,1.62A7.84,7.84,0,0,1,94.84,181a7.21,7.21,0,0,1,.6,2.93,3.74,3.74,0,0,1-3.76,3.77,7.18,7.18,0,0,1-2.93-.6,7.78,7.78,0,0,1-4-4,7.13,7.13,0,0,1-.6-2.92,3.83,3.83,0,0,1,3.76-3.77Zm18.83,26.3a7.18,7.18,0,0,1,2.93.61,7.72,7.72,0,0,1,2.38,1.62,7.48,7.48,0,0,1,2.17,5.31,3.67,3.67,0,0,1-1.1,2.64,3.51,3.51,0,0,1-2.61,1.12,7.51,7.51,0,0,1-3-.58,7.27,7.27,0,0,1-4-4,7.64,7.64,0,0,1-.57-2.95,3.74,3.74,0,0,1,3.76-3.77Zm15-39.43a9.45,9.45,0,0,1-2.51-.36,8.61,8.61,0,0,1-2.43-1.1A6.73,6.73,0,0,1,115,160a4.33,4.33,0,0,1,0-4.81,6.73,6.73,0,0,1,1.86-1.78,8.87,8.87,0,0,1,2.43-1.09,8.6,8.6,0,0,1,5,0,8.79,8.79,0,0,1,2.46,1.09,6.73,6.73,0,0,1,1.86,1.78,4.33,4.33,0,0,1,0,4.81,6.73,6.73,0,0,1-1.86,1.78,8.54,8.54,0,0,1-2.46,1.1A9.52,9.52,0,0,1,121.75,163.24Zm1.88,68.25,43.25-28.82V159.85l-43.25,28.81ZM133,210.21a3.74,3.74,0,0,1,3.77,3.76,7.18,7.18,0,0,1-.6,2.93,7.71,7.71,0,0,1-4,4,7.21,7.21,0,0,1-2.93.6,3.76,3.76,0,0,1-3.77-3.76,7.47,7.47,0,0,1,.58-2.93,7.31,7.31,0,0,1,1.59-2.38,7.74,7.74,0,0,1,2.41-1.62A7.34,7.34,0,0,1,133,210.21Zm13.13-20.66a3.76,3.76,0,0,1,3.77,3.76,7.47,7.47,0,0,1-.58,2.93,7.34,7.34,0,0,1-1.6,2.38,7.32,7.32,0,0,1-5.3,2.17,3.76,3.76,0,0,1-3.77-3.76,7.48,7.48,0,0,1,2.17-5.31,7.37,7.37,0,0,1,5.31-2.17Zm13.18-20.71a3.83,3.83,0,0,1,3.76,3.77,7.34,7.34,0,0,1-.6,2.95,7.74,7.74,0,0,1-1.62,2.41,7.31,7.31,0,0,1-2.38,1.59,7.51,7.51,0,0,1-2.93.58,3.76,3.76,0,0,1-3.76-3.77,7.18,7.18,0,0,1,.6-2.93,7.84,7.84,0,0,1,1.62-2.38,7.72,7.72,0,0,1,2.38-1.62A7.18,7.18,0,0,1,159.35,168.84Z" transform="translate(-0.95 -0.66)"/></svg>